<svg xmlns="http://www.w3.org/2000/svg" xmlns:xlink="http://www.w3.org/1999/xlink" fill="none" version="1.1" width="42" height="42" viewBox="0 0 42 42"><g><g><ellipse cx="21" cy="21" rx="21" ry="21" fill="#FFFCEC" fill-opacity="1"/><ellipse cx="21" cy="21" rx="20.5" ry="20.5" fill-opacity="0" stroke-opacity="0.21960784494876862" stroke="#EAC300" fill="none" stroke-width="1"/></g><g><g><path d="M25.6212,12.5L26.625,12.5C28.2818,12.5,29.625,13.84314,29.625,15.5L29.625,27.7499C29.625,29.4068,28.2818,30.7499,26.625,30.7499L15.375,30.7499C13.71815,30.7499,12.375,29.4068,12.375,27.7499L12.375,15.5C12.375,13.84315,13.71815,12.5,15.375,12.5L16.37885,12.5C16.44337,11.453661,17.31241,10.625000953674,18.375,10.625000953674L23.625,10.625000953674C24.6876,10.625000953674,25.5567,11.453661,25.6212,12.5ZM24.125,13.25L24.125,12.625C24.125,12.34886,23.9011,12.125,23.625,12.125L18.375,12.125C18.09885,12.125,17.875,12.34886,17.875,12.625L17.875,13.875C17.875,14.15114,18.09885,14.375,18.375,14.375L23.625,14.375C23.9011,14.375,24.125,14.15114,24.125,13.875L24.125,13.25ZM15.375,14C14.54658,14,13.875,14.671579999999999,13.875,15.5L13.875,27.7499C13.875,28.5783,14.54658,29.2499,15.375,29.2499L26.625,29.2499C27.4535,29.2499,28.125,28.5783,28.125,27.7499L28.125,15.5C28.125,14.671579999999999,27.4535,14,26.625,14L25.6212,14C25.5567,15.04634,24.6876,15.875,23.625,15.875L18.375,15.875C17.31241,15.875,16.44337,15.04634,16.37885,14L15.375,14ZM24.75,19.625C24.75,20.0392,24.4142,20.375,24,20.375L18,20.375C17.5858,20.375,17.25,20.0392,17.25,19.625C17.25,19.2108,17.5858,18.875,18,18.875L24,18.875C24.4142,18.875,24.75,19.2108,24.75,19.625ZM18,23.2499L24,23.2499C24.4142,23.2499,24.75,23.5856,24.75,23.9999C24.75,24.414099999999998,24.4142,24.7499,24,24.7499L18,24.7499C17.5858,24.7499,17.25,24.414099999999998,17.25,23.9999C17.25,23.5856,17.5858,23.2499,18,23.2499Z" fill="#111925" fill-opacity="0.6000000238418579"/></g></g></g></svg>